PathFileType	4	(X/Y/Z)	C:\Users\Biomechanik\SynologyDrive\AlexP\Athlete_03\Athlete_3_25_03_31\Walking_03\marker_experimental.trc
DataRate	CameraRate	NumFrames	NumMarkers	Units	OrigDataRate	OrigDataStartFrame	OrigNumFrames
200.000000	200.000000	4	53	mm	200.000000	184	246
Frame#	Time	GLAB			RFHD			LFHD			C7			T6			SPINMOL			SPINM2			SPINM3			T12			BELTOL			BELT2			BELT3			SACROL			SACR2			SACR3			LTHOL			LTH2			LTH3			LSHAOL			LSHA2			LSHA3			LHEE			LTOE			LM5			RTHOL			RTH2			RTH3			RSHAOL			RSHA2			RSHA3			RHEE			RTOE			RM5			STRN			XIPH			LACR			LUAOL			LUA2			LUA3			LLAOL			LLA2			LLA3			LWRR			LWRU			RACR			RUAOL			RUA2			RUA3			RLAOL			RLA2			RLA3			RWRR			RWRU			
		X1	Y1	Z1	X2	Y2	Z2	X3	Y3	Z3	X4	Y4	Z4	X5	Y5	Z5	X6	Y6	Z6	X7	Y7	Z7	X8	Y8	Z8	X9	Y9	Z9	X10	Y10	Z10	X11	Y11	Z11	X12	Y12	Z12	X13	Y13	Z13	X14	Y14	Z14	X15	Y15	Z15	X16	Y16	Z16	X17	Y17	Z17	X18	Y18	Z18	X19	Y19	Z19	X20	Y20	Z20	X21	Y21	Z21	X22	Y22	Z22	X23	Y23	Z23	X24	Y24	Z24	X25	Y25	Z25	X26	Y26	Z26	X27	Y27	Z27	X28	Y28	Z28	X29	Y29	Z29	X30	Y30	Z30	X31	Y31	Z31	X32	Y32	Z32	X33	Y33	Z33	X34	Y34	Z34	X35	Y35	Z35	X36	Y36	Z36	X37	Y37	Z37	X38	Y38	Z38	X39	Y39	Z39	X40	Y40	Z40	X41	Y41	Z41	X42	Y42	Z42	X43	Y43	Z43	X44	Y44	Z44	X45	Y45	Z45	X46	Y46	Z46	X47	Y47	Z47	X48	Y48	Z48	X49	Y49	Z49	X50	Y50	Z50	X51	Y51	Z51	X52	Y52	Z52	X53	Y53	Z53	

185	0.92	742.4504394531249	1606.8623046875	149.173049926758	692.0797729492186	1638.957885742188	211.0734863281251	702.7464599609374	1628.36572265625	73.14095306396497	513.7658691406249	1452.398193359375	141.4962921142579	456.7035522460937	1283.093017578125	145.935760498047	448.9679565429687	1242.310302734375	126.5207595825196	442.243438720703	1237.0283203125	176.1295776367188	453.5762023925781	1179.038208007812	145.5802154541016	477.9604492187499	1114.486206054688	152.2547607421876	440.1736755371093	1081.520385742188	138.1553802490235	439.1337890624999	1080.121826171875	188.7028808593751	433.7030029296874	1019.953857421875	160.3916168212891	449.1951599121093	969.011962890625	145.8708496093751	453.0712890624999	967.49072265625	197.3779907226563	436.9858398437499	908.6592407226562	170.9180755615235	531.7620239257812	687.8001098632812	-8.495751380920312	480.4996643066406	636.3187866210938	23.81763458251962	527.7490844726562	628.7699584960938	8.879593849182227	497.9257507324219	330.8521118164063	20.45579147338876	447.4762268066406	271.80419921875	38.39994049072274	497.0263977050781	269.1889953613282	29.46689987182626	428.27099609375	81.4136657714844	130.0238647460938	646.0269775390625	47.3590469360352	126.7785186767579	594.7269897460938	28.87240791320804	26.56067276000988	616.6422729492186	691.7705078125	372.7232360839845	689.2514038085936	663.2407836914062	384.7814331054689	648.9448852539061	640.1735229492188	368.8630676269532	626.4484863281249	399.9159851074219	364.6314697265626	628.2670288085936	322.0613098144532	351.6163330078126	590.6407470703124	353.4461364746094	343.0284118652345	472.8959655761718	187.3729400634766	212.3407592773438	652.832763671875	77.71987915039067	228.2044830322267	593.9177856445311	78.03594207763676	323.2974243164064	682.7887573242186	1352.379150390625	156.4756011962892	697.2269897460936	1208.01708984375	163.032424926758	598.2194213867186	1408.373291015625	-24.99062347412098	611.2058105468749	1252.821899414062	-122.7946243286132	606.3818969726561	1189.562866210938	-140.4513092041014	650.7630004882811	1200.386474609375	-116.9670028686522	684.9393310546874	997.9179077148438	-163.5741729736327	665.8515014648438	923.3092041015625	-146.6767425537108	710.2423706054686	942.0551147460938	-159.4888916015624	761.4248046875	851.8860473632812	-155.5523681640624	799.9765625	871.0440673828125	-88.55149078369126	587.6330566406248	1416.593627929688	318.0930480957032	555.1446533203123	1274.833374023438	423.6149291992189	575.3154296874998	1212.885498046875	436.6529846191407	524.9832763671873	1219.9755859375	445.111785888672	554.3410034179685	1000.410522460938	490.9446105957032	610.3696289062498	952.4506225585938	521.6052246093751	568.681701660156	939.7591552734375	497.2073974609376	611.0636596679686	860.837646484375	515.3104248046876	651.9340209960936	845.5636596679688	446.4669799804689	
186	0.925	748.9550170898436	1606.697631835938	149.4046020507814	698.5891113281249	1638.731689453125	211.358123779297	709.2809448242186	1628.359985351562	73.40059661865247	520.1525878906249	1452.437133789062	141.5294342041016	462.9743652343749	1283.1494140625	145.9992065429688	455.1684875488281	1242.370849609375	126.6000747680665	448.5401000976561	1237.099487304688	176.2212982177735	459.7799377441406	1179.099243164062	145.6671295166016	484.1046447753906	1114.548828125	152.402816772461	446.0669860839843	1081.583984375	138.6004943847657	445.2655334472655	1080.17236328125	189.1509094238282	439.6983947753905	1020.011474609375	160.8520812988282	455.0986022949218	969.1383056640625	146.406967163086	459.2720947265624	967.5264892578125	197.8927764892579	443.1022644042968	908.7140502929688	171.3990936279298	535.5789184570312	688.2684936523438	-8.67140865325918	483.9707336425781	637.1453857421875	23.69536018371591	531.1406860351562	629.2601318359375	8.68467044830332	499.2429504394531	331.4675598144532	20.45330047607431	448.53125	272.6809997558594	38.56198120117196	498.0580139160156	269.8009033203126	29.4784755706788	428.6541137695312	82.25553131103518	130.1338195800782	646.2479858398438	47.25517272949223	126.7283248901368	594.781982421875	28.83181381225589	26.53301811218273	625.1330566406249	691.9599609375	372.6372985839845	698.0239257812499	663.85693359375	383.6051025390626	657.6592407226561	640.6355590820312	368.3548889160157	638.1434326171874	397.2120056152344	363.366912841797	642.1862792968749	319.3989562988282	350.4303283691407	603.5879516601561	349.6891479492188	341.9763183593751	490.4185485839843	179.7351684570313	212.0241088867188	674.1295166015625	76.42159271240239	227.7673339843751	615.2844848632811	74.6631240844727	322.9315490722657	689.1281127929686	1352.310424804688	156.3924255371095	703.4857788085936	1207.932373046875	162.7293853759767	604.5183715820311	1408.594116210938	-24.95391082763661	618.1091918945311	1253.327880859375	-122.9519271850585	613.5093994140624	1190.01611328125	-140.5094451904296	657.9657592773436	1201.119750976562	-117.2515258789061	694.1966552734374	999.0719604492188	-163.8661651611327	676.1123657226562	924.2506103515625	-146.8491363525389	720.2601928710936	943.5850830078125	-159.6171874999999	772.678466796875	854.1124267578125	-155.3671569824217	810.9579467773438	874.0515747070312	-88.44723510742173	594.069152832031	1416.463623046875	318.1195373535157	560.8166503906248	1274.796020507812	423.6054992675782	580.680969238281	1212.763061523438	436.6940917968751	530.3452148437498	1220.05517578125	444.9369506835939	558.2802734374998	1000.453979492188	490.9449768066407	613.7077026367185	952.1019287109375	522.0385131835939	572.088439941406	939.7388916015625	497.3750915527345	613.7760620117186	860.4259643554688	515.7336425781251	655.2615966796874	844.9497680664062	447.2654113769532	
187	0.93	755.4736938476561	1606.467407226562	149.6605377197267	705.1147460937499	1638.439575195312	211.6695709228517	715.8256835937499	1628.286743164062	73.68696594238294	526.5495605468749	1452.411010742188	141.5975799560548	469.2518920898437	1283.144287109375	146.1019744873048	461.3736572265624	1242.371215820312	126.7187042236329	454.8446960449218	1237.109741210938	176.3529357910157	465.9863281249999	1179.099365234375	145.7916259765626	490.2495727539062	1114.551513671875	152.5848236083985	451.9763183593749	1081.607543945312	139.0734405517579	451.4086303710936	1080.178344726562	189.6248168945313	445.6984558105468	1020.02685546875	161.331268310547	461.0134582519531	969.22021484375	146.9590148925782	465.4728698730468	967.5050659179688	198.4229583740235	449.2136230468749	908.7207641601562	171.8769836425782	539.4376220703125	688.686279296875	-8.8360013961791	487.4849548339843	637.9189453125	23.56972885131845	534.57666015625	629.7042846679688	8.498834609985449	500.6113891601562	332.0590209960938	20.4662799835206	449.6315307617188	273.5399780273438	38.73318481445321	499.1340942382812	270.3915100097657	29.5078887939454	429.039794921875	83.08674621582034	130.2716827392579	646.4672241210938	47.14278411865239	126.688804626465	594.835205078125	28.79865264892582	26.5210418701173	633.5162353515624	692.0414428710938	372.4885253906251	706.6693725585936	664.3404541015625	382.404266357422	666.2591552734374	640.9730224609375	367.7772827148439	649.7386474609374	394.4670104980469	362.0745849609376	656.0206298828124	316.7539062500001	349.317352294922	616.5026855468749	345.9039611816407	340.9043579101564	508.1934204101562	172.1077575683594	211.7679901123048	695.419921875	75.22180175781254	227.4744873046876	636.6803588867186	71.42610168457036	322.6947631835939	695.4790649414061	1352.173583984375	156.3325805664064	709.7523803710936	1207.780395507812	162.4475097656251	610.8204345703124	1408.753295898438	-24.88452911376942	625.0042114257811	1253.783569335938	-123.0800399780272	620.6267089843749	1190.424682617188	-140.5477294921874	665.1547851562499	1201.800659179688	-117.5086441040038	703.4082031249999	1000.194274902344	-164.1397552490233	686.3240356445312	925.1695556640625	-147.0104370117186	730.2240600585936	945.0923461914062	-159.7277526855467	783.8602905273438	856.328857421875	-155.1580810546874	821.8519897460938	877.049072265625	-88.31886291503891	600.5224609374998	1416.268188476562	318.1760253906251	566.5228881835935	1274.692138671875	423.6176147460939	586.0849609374998	1212.578735351562	436.7537231445314	535.748107910156	1220.06787109375	444.7863159179689	562.2812499999998	1000.442504882812	490.9564208984376	617.1101074218748	951.7052612304688	522.4664916992189	575.5633544921873	939.6591186523438	497.5501708984376	616.5489501953124	859.966796875	516.1509399414064	658.6461181640624	844.2898559570312	448.064422607422	
188	0.9350000000000001	762.0067749023436	1606.171020507812	149.9415435791017	711.6572875976561	1638.080444335938	212.0082855224611	722.3807983398436	1628.144897460938	74.00070953369153	532.9572143554686	1452.318237304688	141.7015838623048	475.5373840332031	1283.076049804688	146.2443389892579	467.5853881835937	1242.309448242188	126.8767395019532	461.1589965820311	1237.057373046875	176.5247955322266	472.1973571777343	1179.036499023438	145.9536437988282	496.3975524902343	1114.492065429688	152.7998504638673	457.9045715332031	1081.588623046875	139.5697021484376	457.5647888183593	1080.13671875	190.1199035644532	451.7059020996093	1019.997497558594	161.8243713378907	466.9447326660156	969.2547607421875	147.519500732422	471.6719970703124	967.4264526367188	198.9632263183595	455.3165893554686	908.6792602539062	172.3469543457032	543.3333129882812	689.0531616210938	-8.987129211425682	491.0390319824218	638.6414184570312	23.44924354553232	538.0523071289062	630.102783203125	8.326171875000099	502.0324401855469	332.6238403320313	20.49442291259775	450.7783203125	274.3782958984375	38.90963363647469	500.2562866210938	270.9584960937501	29.55524063110361	429.4281921386719	83.9051208496094	130.4376220703126	646.6823120117188	47.02228164672856	126.6600418090821	594.883544921875	28.77435302734379	26.52428436279308	641.7849121093749	692.0098876953125	372.2666015625001	715.1838378906249	664.683837890625	381.1818237304689	674.7382812499999	641.1774291992188	367.123260498047	661.2282104492186	391.6907348632813	360.7567138671876	669.7624511718749	314.1391906738282	348.2791748046876	629.3797607421874	342.1057434082032	339.8150634765626	526.217041015625	164.5224609375	211.5688018798829	716.6956176757812	74.13953399658207	227.3360900878908	658.0913696289061	68.35089111328129	322.5939331054689	701.8421020507811	1351.967651367188	156.2965393066408	716.0276489257811	1207.559936523438	162.1871643066408	617.1251831054686	1408.849365234375	-24.78219032287586	631.8905029296874	1254.187744140625	-123.1785964965819	627.7370605468749	1190.788330078125	-140.5701751708983	672.3305053710936	1202.428100585938	-117.7372589111327	712.5735473632811	1001.283386230469	-164.3941650390624	696.4849243164062	926.0640258789062	-147.1601715087889	740.1328124999999	946.57470703125	-159.8199920654295	794.9680786132812	858.5325317382812	-154.9257202148436	832.6553344726562	880.031982421875	-88.16542816162094	606.9940795898435	1416.006713867188	318.2628479003907	572.2653198242185	1274.520751953125	423.6518554687501	591.5299072265623	1212.33056640625	436.8318786621095	541.1935424804685	1220.0126953125	444.660125732422	566.347473144531	1000.374450683594	490.9799194335939	620.5820312499998	951.259033203125	522.8885498046876	579.114807128906	939.5166015625	497.7305603027345	619.3884277343749	859.4597778320312	516.5626831054689	662.0839233398436	843.5801391601562	448.861297607422	
